# xmcd
#
# Track frame offsets:
#	150
#	10551
#	20848
#	31229
#	41524
#	53138
#	62949
#	73690
#	82489
#	94029
#	104231
#	113209
#	121711
#	133495
#	145136
#	156344
#	168121
#	178401
#	189361
#	201094
#	212456
#	222612
#	232405
#	242855
#	255346
#
# Disc length: 3564 seconds
#
# Revision: 1
# Processed by: cddbd v1.5.2PL0 Copyright (c) Steve Scherf et al.
# Submitted via: audiograbber 1.83.01
#
DISCID=7d0dea19
DTITLE=Ronnie Hawkins and The Hawks - The Dynamic Early Album Collection CD 1
DYEAR=2011
DGENRE=Rock and Roll
TTITLE0=Forty Days
TTITLE1=Odessa
TTITLE2=Wild Little Willy
TTITLE3=Ruby Baby
TTITLE4=Horace
TTITLE5=Mary Lou
TTITLE6=Need Your Lovin' 
TTITLE7=Dizzy Miss Lizzy
TTITLE8=One Of These Days
TTITLE9=Oh Sugar
TTITLE10=Whatcha Gonna Do
TTITLE11=My Girl Is Red Hot
TTITLE12=Clara
TTITLE13=Hey Boba Lou
TTITLE14=Someone Like You
TTITLE15=Dreams Do Come True
TTITLE16=Hayride
TTITLE17=Honey Don't
TTITLE18=Lonely Hours
TTITLE19=Sick And Tired
TTITLE20=Love Me Like You Can
TTITLE21=You Cheated You Lied
TTITLE22=Baby Jean
TTITLE23=Southern Love
TTITLE24=The Ballad Of Caryl Chessman
EXTD=
EXTT0=
EXTT1=
EXTT2=
EXTT3=
EXTT4=
EXTT5=
EXTT6=
EXTT7=
EXTT8=
EXTT9=
EXTT10=
EXTT11=
EXTT12=
EXTT13=
EXTT14=
EXTT15=
EXTT16=
EXTT17=
EXTT18=
EXTT19=
EXTT20=
EXTT21=
EXTT22=
EXTT23=
EXTT24=
PLAYORDER=
